<?xml version="1.0" encoding="UTF-8"?>
<svg width="297px" height="45px" viewBox="0 0 297 45" version="1.1" xmlns="http://www.w3.org/2000/svg" xmlns:xlink="http://www.w3.org/1999/xlink">
    <title>Graphic1-Light</title>
    <defs>
        <linearGradient x1="58.9717389%" y1="7.4114724%" x2="37.1905196%" y2="103.76182%" id="linearGradient-1">
            <stop stop-color="#114A8B" offset="0%"></stop>
            <stop stop-color="#0669BC" offset="100%"></stop>
        </linearGradient>
        <linearGradient x1="59.7188447%" y1="52.3127289%" x2="52.6914332%" y2="54.8636556%" id="linearGradient-2">
            <stop stop-color="#000000" stop-opacity="0.3" offset="0%"></stop>
            <stop stop-color="#000000" stop-opacity="0.2" offset="7.1%"></stop>
            <stop stop-color="#000000" stop-opacity="0.1" offset="32.1%"></stop>
            <stop stop-color="#000000" stop-opacity="0.05" offset="62.3%"></stop>
            <stop stop-color="#000000" stop-opacity="0" offset="100%"></stop>
        </linearGradient>
        <linearGradient x1="37.2789399%" y1="4.60005789%" x2="62.4733904%" y2="99.9794963%" id="linearGradient-3">
            <stop stop-color="#3CCBF4" offset="0%"></stop>
            <stop stop-color="#2892DF" offset="100%"></stop>
        </linearGradient>
        <path d="M0.0114404841,10.1751665 C0.00400416942,10.3393375 3.25158114e-15,10.5048431 3.25158114e-15,10.6716835 C3.25158114e-15,10.8541593 0.00400416942,11.0349189 0.0137285809,11.2151065 C0.00972441145,11.3037703 3.25158114e-15,11.39129 3.25158114e-15,11.4816698 L3.25158114e-15,28.9959068 C3.25158114e-15,32.3451086 2.74056796,35.0856765 6.08976966,35.0856765 L15.2547414,35.0856765 C18.6045152,35.0856765 21.3445111,32.3451086 21.3445111,28.9959068 L21.3445111,11.4810978 C21.3445111,11.3792775 21.3342147,11.2803173 21.3284944,11.180213 C21.3365028,11.0114659 21.341079,10.8415747 21.341079,10.6716835 C21.341079,10.5046525 21.3370748,10.3399095 21.3296385,10.1751665 C21.0722276,4.51155489 16.3987899,-1.62579057e-15 10.6716835,-1.62579057e-15 C4.94400519,-1.62579057e-15 0.269995424,4.51155489 0.0114404841,10.1751665 Z" id="path-4"></path>
        <rect id="path-6" x="1.62579057e-15" y="-8.12895284e-16" width="34.6709584" height="34.6709573"></rect>
        <polygon id="path-8" points="-1.52757412 11.5962508 35.9041864 11.5962508 35.9041864 22.7803616 -1.52757412 22.7803616"></polygon>
        <rect id="path-10" x="3.25158114e-15" y="-1.62579057e-15" width="21.857618" height="35.4248852"></rect>
        <path d="M0.0114404841,10.1751665 C0.00400416942,10.3393375 3.25158114e-15,10.5048431 3.25158114e-15,10.6716835 C3.25158114e-15,10.8541593 0.00400416942,11.0349189 0.0137285809,11.2151065 C0.00972441145,11.3037703 3.25158114e-15,11.39129 3.25158114e-15,11.4816698 L3.25158114e-15,28.9959068 C3.25158114e-15,32.3451086 2.74056796,35.0856765 6.08976966,35.0856765 L15.2547414,35.0856765 C18.6045152,35.0856765 21.3445111,32.3451086 21.3445111,28.9959068 L21.3445111,11.4810978 C21.3445111,11.3792775 21.3342147,11.2803173 21.3284944,11.180213 C21.3365028,11.0114659 21.341079,10.8415747 21.341079,10.6716835 C21.341079,10.5046525 21.3370748,10.3399095 21.3296385,10.1751665 C21.0722276,4.51155489 16.3987899,-1.62579057e-15 10.6716835,-1.62579057e-15 C4.94400519,-1.62579057e-15 0.269995424,4.51155489 0.0114404841,10.1751665 Z" id="path-12"></path>
        <rect id="path-14" x="-2.03223821e-16" y="0" width="36.5552055" height="36.5552078"></rect>
        <polygon id="path-16" points="-0.60423438 11.2139581 36.8280971 11.2139581 36.8280971 25.0099046 -0.60423438 25.0099046"></polygon>
        <rect id="path-18" x="3.25158114e-15" y="-1.62579057e-15" width="21.857618" height="35.4248852"></rect>
        <path d="M0.0114404841,10.1751665 C0.00400416942,10.3393375 0,10.5048431 0,10.6716835 C0,10.8541593 0.00400416942,11.0349189 0.0137285809,11.2151065 C0.00972441145,11.3037703 0,11.39129 0,11.4816698 L0,28.9959068 C0,32.3451086 2.74056796,35.0856765 6.08976966,35.0856765 L15.2547414,35.0856765 C18.6045152,35.0856765 21.3445111,32.3451086 21.3445111,28.9959068 L21.3445111,11.4810978 C21.3445111,11.3792775 21.3342147,11.2803173 21.3284944,11.180213 C21.3365028,11.0114659 21.341079,10.8415747 21.341079,10.6716835 C21.341079,10.5046525 21.3370748,10.3399095 21.3296385,10.1751665 C21.0722276,4.51155489 16.3987899,0 10.6716835,0 C4.94400519,0 0.269995424,4.51155489 0.0114404841,10.1751665 Z" id="path-20"></path>
        <rect id="path-22" x="0" y="0" width="34.6709601" height="34.6709601"></rect>
        <polygon id="path-24" points="-1.56221202 11.610963 35.8705925 11.610963 35.8705925 22.6978206 -1.56221202 22.6978206"></polygon>
        <rect id="path-26" x="0" y="0" width="21.857618" height="35.4248852"></rect>
    </defs>
    <g id="Graphic1-Light" stroke="none" stroke-width="1" fill="none" fill-rule="evenodd">
        <rect id="GoogleBG" fill="#FFFFFF" fill-rule="nonzero" x="252" y="0" width="45" height="45" rx="12"></rect>
        <g id="Google" transform="translate(261.999644, 11.750703)">
            <path d="M16.0194792,5.45438948 L16.7894516,5.45438948 L18.9838731,3.31503884 L19.0916693,2.40675312 C15.0077354,-1.10778714 8.77480838,-0.728709217 5.16979736,3.25273494 C4.1680632,4.35919208 3.44197918,5.67432974 3.04544337,7.09831156 C3.28952463,7.00072715 3.56055494,6.98496351 3.81541582,7.0532726 L8.20425879,6.34766221 C8.20425879,6.34766221 8.4275508,5.98735052 8.54304667,6.00987 C10.4949268,3.91931156 13.7803993,3.67610117 16.0348786,5.45438948 L16.0194792,5.45438948 Z" id="Fill-1" fill="#EA4335"></path>
            <path d="M22.1097303,7.0982365 C21.6053983,5.28691961 20.5697854,3.65951182 19.1299369,2.41418455 L16.0500471,5.41678195 C17.3505306,6.45267806 18.0912441,8.01327806 18.0596752,9.65044429 L18.0596752,10.1834053 C19.574211,10.1834053 20.8007771,11.3799404 20.8007771,12.8549664 C20.8007771,14.3314936 19.574211,15.5280287 18.0596752,15.5280287 L12.5774713,15.5280287 L12.0307909,16.0684962 L12.0307909,19.273769 L12.5774713,19.80673 L18.0596752,19.80673 C21.9973143,19.8360053 25.2142592,16.7485845 25.2450581,12.9105144 C25.2635374,10.5835014 24.0870195,8.40136377 22.1097303,7.0982365" id="Fill-4" fill="#4285F4"></path>
            <path d="M7.08772174,19.7767791 L12.5699256,19.7767791 L12.5699256,15.4980778 L7.08772174,15.4980778 C6.69734571,15.4980778 6.31081954,15.4155064 5.95586224,15.2571194 L5.18588978,15.4905713 L2.97606885,17.629922 L2.78357573,18.3805713 C4.02323138,19.2926103 5.5346873,19.7835349 7.08772174,19.7767791" id="Fill-7" fill="#34A853"></path>
            <path d="M7.08772174,5.89708085 C3.15008262,5.9203926 -0.0229738523,9.05060039 0,12.8894212 C0.013214853,15.0332757 1.0403581,17.0510212 2.78357573,18.3579017 L5.96356196,15.2577199 C4.58377133,14.6496939 3.97087326,13.0673251 4.59455094,11.7221614 C5.21745865,10.3769978 6.84133056,9.77948091 8.22112119,10.3867562 C8.82862945,10.6547381 9.31602202,11.1298991 9.59013221,11.7221614 L12.7701184,8.62197961 C11.4172768,6.89773806 9.31448207,5.88961598 7.08772174,5.89708085" id="Fill-9" fill="#FBBC05"></path>
        </g>
        <rect id="AzureBG" fill="#FFFFFF" fill-rule="nonzero" x="222" y="0" width="45" height="45" rx="12"></rect>
        <g id="Azure" transform="translate(232.000000, 10.000000)" fill-rule="nonzero">
            <path d="M8.33430211,0.000284112524 L15.732024,0.000284112524 L8.05246248,22.7540038 C7.89062017,23.2334244 7.44104892,23.5563376 6.93504793,23.5563376 L1.17779174,23.5563376 C0.798468465,23.5563376 0.442347134,23.3737087 0.22109273,23.0655972 C-0.000161673961,22.7574858 -0.0594575883,22.3616629 0.0617977438,22.0022421 L7.21660344,0.802617881 C7.37838127,0.322986076 7.82812157,0 8.33430211,0 L8.33430211,0.000284112524 Z" id="Path" fill="url(#linearGradient-1)"></path>
            <path d="M19.0842677,15.2619562 L7.35326156,15.2619562 C7.13007062,15.2617098 6.92946586,15.3980749 6.84758186,15.6057026 C6.76569786,15.8133303 6.81921822,16.0499171 6.98249472,16.2020849 L14.5205682,23.2378475 C14.7400388,23.4425759 15.0290174,23.5563376 15.3291525,23.5563376 L21.9717033,23.5563376 L19.0842677,15.2619562 Z" id="Path" fill="#0078D4"></path>
            <path d="M8.33430211,0.000275416827 C7.82209202,-0.00168150049 7.3681546,0.329763045 7.21404643,0.818244069 L0.070605232,21.9829224 C-0.0588511413,22.3437678 -0.00433166613,22.7450616 0.216703794,23.0582895 C0.437739254,23.3715173 0.797553861,23.5573735 1.18091698,23.5563419 L7.08676401,23.5563419 C7.53457412,23.4763267 7.90469753,23.161559 8.05558772,22.7324113 L9.48012792,18.5340805 L14.5685832,23.2801802 C14.7818178,23.4565573 15.0493094,23.5540824 15.3260272,23.5563419 L21.9438602,23.5563419 L19.0413667,15.2619566 L10.5802116,15.2639454 L15.7587306,0.000275416827 L8.33430211,0.000275416827 Z" id="Path" fill="url(#linearGradient-2)"></path>
            <path d="M17.7830323,0.80148143 C17.6214829,0.322622243 17.1724138,0.000284112524 16.6670383,0.000284112524 L8.42237699,0.000284112524 C8.92772427,0.000284112524 9.37674761,0.322676916 9.53837099,0.80148143 L16.6934608,22.001958 C16.8148076,22.3614445 16.755566,22.7573732 16.5343116,23.0655972 C16.3130572,23.3738213 15.9568816,23.5566217 15.5774668,23.5566217 L23.8224122,23.5566217 C24.2017769,23.5566217 24.5578678,23.3736919 24.7790558,23.0654819 C25.0002438,22.7572718 25.059453,22.361397 24.9381221,22.001958 L17.7830323,0.80148143 Z" id="Path" fill="url(#linearGradient-3)"></path>
        </g>
        <rect id="AWSBG" fill="#FFFFFF" fill-rule="nonzero" x="192" y="0" width="45" height="45" rx="12"></rect>
        <path d="M225,0 C226.459799,0 227.858716,0.260663683 229.152747,0.737985651 L229.500391,0.87243396 C230.889077,0.309876983 232.408351,0 234,0 L255,0 C256.46084,0 257.860712,0.26103575 259.155517,0.739007598 L259.500391,0.87243396 C260.889077,0.309876983 262.408351,0 264,0 L285,0 C291.627417,0 297,5.372583 297,12 L297,33 C297,39.627417 291.627417,45 285,45 L264,45 C262.408351,45 260.889077,44.690123 259.499218,44.1274077 L259.52278,44.118476 C258.126959,44.6868431 256.600051,45 255,45 L234,45 C232.408351,45 230.889077,44.690123 229.499218,44.1274077 L229.52278,44.118476 C228.126959,44.6868431 226.600051,45 225,45 L204,45 C197.372583,45 192,39.627417 192,33 L192,12 C192,5.372583 197.372583,0 204,0 L225,0 Z M255,1 L234,1 C232.878398,1 231.796002,1.1678653 230.776567,1.47984277 L230.757916,1.46906918 C234.477804,3.50728603 237,7.45909779 237,12 L237,33 C237,37.4369127 234.592001,41.3114071 231.011579,43.3879067 L230.777408,43.5202271 C231.796002,43.8321347 232.878398,44 234,44 L255,44 C261.075132,44 266,39.0751322 266,33 L266,12 C266,5.92486775 261.075132,1 255,1 Z M285,1 L264,1 C262.878398,1 261.796002,1.1678653 260.776567,1.47984277 L260.757916,1.46906918 C264.477804,3.50728603 267,7.45909779 267,12 L267,33 C267,37.4369127 264.592001,41.3114071 261.011579,43.3879067 L260.777408,43.5202271 C261.796002,43.8321347 262.878398,44 264,44 L285,44 C291.075132,44 296,39.0751322 296,33 L296,12 C296,5.92486775 291.075132,1 285,1 Z M225,1 L204,1 C197.924868,1 193,5.92486775 193,12 L193,33 C193,39.0751322 197.924868,44 204,44 L225,44 C231.075132,44 236,39.0751322 236,33 L236,12 C236,5.92486775 231.075132,1 225,1 Z" id="CardBorders" fill="#D8D8DA" fill-rule="nonzero"></path>
        <g id="AWS" transform="translate(199.615385, 13.854396)">
            <path d="M8.47825307,6.89337152 C8.47825307,7.28396072 8.51731626,7.60065466 8.58567683,7.83289689 C8.6638032,8.06513912 8.76146116,8.31849427 8.89818231,8.59296236 C8.94701129,8.67741408 8.96654288,8.76186579 8.96654288,8.83576105 C8.96654288,8.9413257 8.90794811,9.04689034 8.78099276,9.15245499 L8.1657476,9.59582651 C8.07785543,9.6591653 7.98986561,9.6908347 7.91183689,9.6908347 C7.81417893,9.6908347 7.71652097,9.63805237 7.61886301,9.54304419 C7.48214186,9.38469722 7.36495231,9.21579378 7.26729434,9.04689034 C7.16963638,8.86743044 7.07197842,8.66685761 6.96455466,8.42405892 C6.2027249,9.39525368 5.24577453,9.88085106 4.09341058,9.88085106 C3.2730837,9.88085106 2.61877535,9.62749591 2.14025134,9.1207856 C1.66172732,8.61407529 1.41758242,7.93846154 1.41758242,7.09394435 C1.41758242,6.19664484 1.71045865,5.46824877 2.30626987,4.9193126 C2.90198344,4.37037643 3.69301293,4.09590835 4.69888994,4.09590835 C5.03082936,4.09590835 5.37272988,4.12757774 5.73406434,4.18036007 C6.0953988,4.23314239 6.46649906,4.31759411 6.8571309,4.41260229 L6.8571309,3.64198036 C6.8571309,2.83968903 6.70087816,2.2801964 6.39813848,1.95294599 C6.085633,1.62569558 5.55828001,1.46734861 4.8063137,1.46734861 C4.46451083,1.46734861 4.11294217,1.50957447 3.75160771,1.60458265 C3.39027325,1.69959083 3.03870459,1.81571195 2.69690172,1.96350245 C2.54064898,2.03739771 2.42345943,2.07962357 2.35509885,2.1007365 C2.28673828,2.12184943 2.2379093,2.13240589 2.19874846,2.13240589 C2.06212497,2.13240589 1.99376439,2.02684124 1.99376439,1.80515548 L1.99376439,1.28788871 C1.99376439,1.11898527 2.01329599,0.992307692 2.06212497,0.918412439 C2.11095395,0.844517185 2.19874846,0.770621931 2.33556726,0.696726678 C2.67727247,0.506710311 3.08753357,0.348363339 3.56605758,0.221685761 C4.0445816,0.0844517185 4.552403,0.0211129296 5.08952179,0.0211129296 C6.25165154,0.0211129296 7.10127581,0.30613748 7.6481604,0.876186579 C8.18527919,1.44623568 8.45872148,2.31186579 8.45872148,3.47307692 L8.45872148,6.89337152 L8.47825307,6.89337152 Z M4.51333981,8.49795417 C4.83561109,8.49795417 5.1675505,8.43461538 5.51921682,8.30793781 C5.87078549,8.18126023 6.18329097,7.949018 6.44696746,7.63232406 C6.6032202,7.43175123 6.7203121,7.21006547 6.77900453,6.95671031 C6.83759931,6.70335516 6.8766625,6.39721768 6.8766625,6.03829787 L6.8766625,5.59492635 C6.59345441,5.5210311 6.29071472,5.45769231 5.97820925,5.41546645 C5.66570377,5.37324059 5.36296408,5.35212766 5.0602244,5.35212766 C4.40591606,5.35212766 3.92739204,5.4893617 3.60512077,5.77438625 C3.28284949,6.0594108 3.12659675,6.46055646 3.12659675,6.98837971 C3.12659675,7.48453355 3.24378631,7.85400982 3.48793121,8.10736498 C3.72231032,8.3712766 4.06411319,8.49795417 4.51333981,8.49795417 Z M12.3552742,9.63805237 C12.1794898,9.63805237 12.0623003,9.60638298 11.9841739,9.53248773 C11.9060475,9.46914894 11.837687,9.32135843 11.7790922,9.1207856 L9.48413008,0.960638298 C9.42543765,0.749509002 9.39623792,0.612274959 9.39623792,0.538379705 C9.39623792,0.369476268 9.47426663,0.274468085 9.63061703,0.274468085 L10.5876651,0.274468085 C10.7731175,0.274468085 10.9001705,0.30613748 10.9685311,0.380032733 C11.0466575,0.443371522 11.1052523,0.591162029 11.163847,0.791734861 L12.8045008,7.78011457 L14.3278673,0.791734861 C14.376794,0.580605565 14.4352911,0.443371522 14.5135151,0.380032733 C14.5916415,0.316693944 14.728265,0.274468085 14.904147,0.274468085 L15.6854107,0.274468085 C15.8708631,0.274468085 15.9979162,0.30613748 16.0760425,0.380032733 C16.1541689,0.443371522 16.2225295,0.591162029 16.2615926,0.791734861 L17.8044908,7.86456628 L19.4940712,0.791734861 C19.552666,0.580605565 19.6210265,0.443371522 19.6893871,0.380032733 C19.7675135,0.316693944 19.8944688,0.274468085 20.0702532,0.274468085 L20.9784722,0.274468085 C21.134725,0.274468085 21.2226171,0.358919804 21.2226171,0.538379705 C21.2226171,0.591162029 21.2128513,0.643944354 21.2030855,0.707283142 C21.1932221,0.770621931 21.1737881,0.85507365 21.134725,0.971194763 L18.7811681,9.13134206 C18.7224756,9.34247136 18.6541151,9.4797054 18.5759887,9.54304419 C18.49796,9.60638298 18.3710046,9.64860884 18.2049861,9.64860884 L17.36503,9.64860884 C17.1795775,9.64860884 17.0526221,9.61693944 16.9743981,9.54304419 C16.8962717,9.46914894 16.8279112,9.33191489 16.7889456,9.1207856 L15.2752472,2.31186579 L13.7713146,9.11022913 C13.722388,9.32135843 13.6638909,9.45859247 13.5857645,9.53248773 C13.5076381,9.60638298 13.370917,9.63805237 13.1951326,9.63805237 L12.3552742,9.63805237 Z M24.9043223,9.92307692 C24.3965009,9.92307692 23.8886795,9.85973813 23.4003897,9.73306056 C22.9120999,9.60638298 22.5312338,9.46914894 22.2773231,9.31080196 C22.1210704,9.21579378 22.013549,9.11022913 21.9745834,9.01522095 C21.9355202,8.92021277 21.9159887,8.81464812 21.9159887,8.71963993 L21.9159887,8.18126023 C21.9159887,7.95957447 21.994115,7.85400982 22.140602,7.85400982 C22.1991967,7.85400982 22.2576939,7.86456628 22.3162886,7.88567921 C22.3749811,7.90679214 22.4627756,7.949018 22.5605312,7.99124386 C22.8924706,8.14959083 23.2539027,8.27626841 23.6346711,8.36072013 C24.0254006,8.44517185 24.406169,8.48739771 24.7968985,8.48739771 C25.4121437,8.48739771 25.8906677,8.3712766 26.2226071,8.13903437 C26.5547418,7.90679214 26.7305262,7.56898527 26.7305262,7.13617021 C26.7305262,6.8405892 26.642634,6.59779051 26.466752,6.39721768 C26.2910654,6.19664484 25.9590283,6.01718494 25.4804066,5.84828151 L24.0644638,5.37324059 C23.3515607,5.1304419 22.8242077,4.77152209 22.5019364,4.29648118 C22.1796651,3.83199673 22.013549,3.31472995 22.013549,2.76579378 C22.013549,2.32242226 22.1015388,1.93183306 22.2773231,1.59402619 C22.4530098,1.25621931 22.6874866,0.960638298 22.9804604,0.728396072 C23.2734343,0.485597381 23.6054714,0.30613748 23.9961032,0.179459902 C24.3867351,0.0527823241 24.7968985,0 25.2265936,0 C25.4413434,0 25.6660544,0.0105564648 25.8808043,0.0422258592 C26.1055152,0.0738952537 26.3104993,0.116121113 26.515581,0.158346972 C26.7108969,0.211129296 26.8964471,0.26391162 27.072329,0.327250409 C27.2480157,0.390589198 27.3848345,0.453927987 27.4824925,0.517266776 C27.6192136,0.601718494 27.7168716,0.686170213 27.7754664,0.781178396 C27.8340612,0.865630115 27.8633585,0.981751227 27.8633585,1.12954173 L27.8633585,1.62569558 C27.8633585,1.84738134 27.7852322,1.96350245 27.6387452,1.96350245 C27.5606189,1.96350245 27.4336635,1.9212766 27.267645,1.83682488 C26.7109946,1.56235679 26.0859836,1.42512275 25.3926121,1.42512275 C24.8359617,1.42512275 24.3965009,1.52013093 24.0937612,1.72070376 C23.7910215,1.9212766 23.6347688,2.22741408 23.6347688,2.66022913 C23.6347688,2.95581015 23.7324267,3.2091653 23.9277427,3.40973813 C24.1230586,3.61031097 24.4843931,3.8108838 25.0019803,3.9903437 L26.3887233,4.46538462 C27.0918606,4.70818331 27.599682,5.04599018 27.9024217,5.47880524 C28.2051614,5.91162029 28.3516484,6.40777414 28.3516484,6.95671031 C28.3516484,7.4106383 28.2637562,7.82234043 28.0977377,8.18126023 C27.9219533,8.54018003 27.6875742,8.85687398 27.3848345,9.11022913 C27.0820948,9.37414075 26.7207604,9.56415712 26.3008311,9.70139116 C25.8613703,9.84918167 25.4023779,9.92307692 24.9043223,9.92307692 L24.9043223,9.92307692 Z" id="Fill-1" fill="#252F3E"></path>
            <path d="M26.9138126,14.5343301 C23.6564102,17.078149 18.9237709,18.4285714 14.8545922,18.4285714 C9.15166284,18.4285714 4.01308587,16.1988042 0.131925616,12.492994 C-0.175101883,12.1998791 0.102222859,11.8020802 0.468556863,12.0323848 C4.66654653,14.6076089 9.84462817,16.1673991 15.2011244,16.1673991 C18.8149598,16.1673991 22.7852283,15.3718014 26.4386675,13.7387325 C26.983218,13.4770227 27.4485612,14.1155945 26.9138126,14.5343301 Z M28.2703375,12.9012612 C27.8543999,12.3359681 25.517882,12.6290831 24.4584836,12.7651721 C24.1415552,12.8070457 24.0920506,12.5139308 24.3792763,12.2940946 C26.2406491,10.912267 29.299934,11.3100659 29.6564661,11.770675 C30.0128992,12.2417526 29.5574569,15.4764853 27.8147962,17.0258071 C27.5475704,17.2665801 27.2901465,17.1409594 27.4088585,16.8269077 C27.8048953,15.790537 28.6861761,13.4560859 28.2703375,12.9012612 L28.2703375,12.9012612 Z" id="Fill-2" fill="#FF9900"></path>
        </g>
        <path d="M73,22 C73.5522847,22 74,22.4477153 74,23 C74,23.5522847 73.5522847,24 73,24 L63,24 C62.4477153,24 62,23.5522847 62,23 C62,22.4477153 62.4477153,22 63,22 L73,22 Z M93,22 C93.5522847,22 94,22.4477153 94,23 C94,23.5522847 93.5522847,24 93,24 L83,24 C82.4477153,24 82,23.5522847 82,23 C82,22.4477153 82.4477153,22 83,22 L93,22 Z M156,22 C156.552285,22 157,22.4477153 157,23 C157,23.5522847 156.552285,24 156,24 L146,24 C145.447715,24 145,23.5522847 145,23 C145,22.4477153 145.447715,22 146,22 L156,22 Z M176,22 C176.552285,22 177,22.4477153 177,23 C177,23.5522847 176.552285,24 176,24 L166,24 C165.447715,24 165,23.5522847 165,23 C165,22.4477153 165.447715,22 166,22 L176,22 Z" id="Lines" fill="#7D4CD1" fill-rule="nonzero"></path>
        <g id="crossplane-icon-color" transform="translate(109.000000, 0.000000)">
            <path d="M10.5429781,14.4790766 C9.83358007,14.4790766 9.15323632,14.7608797 8.65161617,15.2624999 C8.14999602,15.76412 7.86819291,16.4444638 7.86819291,17.1538618 L7.86819291,42.3252148 C7.86819291,43.8024579 9.06573502,45 10.5429781,45 C12.0202211,45 13.2177634,43.8024579 13.2177634,42.3252148 L13.2177634,17.1544338 C13.2179825,16.4449169 12.9362643,15.7643886 12.4346137,15.2626307 C11.9329631,14.7608728 11.252495,14.4790766 10.5429781,14.4790766" id="Path" fill="#F7D186"></path>
            <polygon id="Path" fill="#D8AE64" points="8.55404993 35.0851045 13.2183353 39.8266131 13.2183353 35.0851045"></polygon>
            <g id="Clipped">
                <mask id="mask-5" fill="white">
                    <use xlink:href="#path-4"></use>
                </mask>
                <g id="Path"></g>
                <g mask="url(#mask-5)">
                    <g transform="translate(-6.927213, 2.310406)">
                        <mask id="mask-7" fill="white">
                            <use xlink:href="#path-6"></use>
                        </mask>
                        <g id="Rectangle" stroke="none" fill="none"></g>
                        <g id="Clipped" stroke="none" stroke-width="1" fill="none" fill-rule="evenodd" mask="url(#mask-7)">
                            <g transform="translate(0.333854, 0.338531)">
                                <mask id="mask-9" fill="white">
                                    <use xlink:href="#path-8" transform="translate(17.188306, 17.188306) rotate(-45.000000) translate(-17.188306, -17.188306) "></use>
                                </mask>
                                <g id="Rectangle" stroke="none" fill="none" transform="translate(17.188306, 17.188306) rotate(-45.000000) translate(-17.188306, -17.188306) "></g>
                                <g id="Clipped" stroke="none" stroke-width="1" fill="none" fill-rule="evenodd" mask="url(#mask-9)">
                                    <g transform="translate(6.449780, -2.976708)">
                                        <mask id="mask-11" fill="white">
                                            <use xlink:href="#path-10"></use>
                                        </mask>
                                        <g id="Rectangle" stroke="none" fill="none"></g>
                                        <rect id="Rectangle" stroke="none" fill="#FFCD3C" fill-rule="nonzero" mask="url(#mask-11)" x="-8.30922357" y="1.11201505" width="38.0773631" height="38.0773614"></rect>
                                    </g>
                                </g>
                            </g>
                        </g>
                    </g>
                </g>
            </g>
            <g id="Clipped">
                <mask id="mask-13" fill="white">
                    <use xlink:href="#path-12"></use>
                </mask>
                <g id="Path"></g>
                <g mask="url(#mask-13)">
                    <g transform="translate(-16.348452, -7.111405)">
                        <mask id="mask-15" fill="white">
                            <use xlink:href="#path-14"></use>
                        </mask>
                        <g id="Rectangle" stroke="none" fill="none"></g>
                        <g id="Clipped" stroke="none" stroke-width="1" fill="none" fill-rule="evenodd" mask="url(#mask-15)">
                            <g transform="translate(-0.000420, 0.000250)">
                                <mask id="mask-17" fill="white">
                                    <use xlink:href="#path-16" transform="translate(18.111931, 18.111931) rotate(-45.000000) translate(-18.111931, -18.111931) "></use>
                                </mask>
                                <g id="Rectangle" stroke="none" fill="none" transform="translate(18.111931, 18.111931) rotate(-45.000000) translate(-18.111931, -18.111931) "></g>
                                <g id="Clipped" stroke="none" stroke-width="1" fill="none" fill-rule="evenodd" mask="url(#mask-17)">
                                    <g transform="translate(16.205294, 6.783383)">
                                        <mask id="mask-19" fill="white">
                                            <use xlink:href="#path-18"></use>
                                        </mask>
                                        <g id="Rectangle" stroke="none" fill="none"></g>
                                        <rect id="Rectangle" stroke="none" fill="#F3807B" fill-rule="nonzero" mask="url(#mask-19)" x="-18.0896928" y="-8.6678816" width="39.9925001" height="39.9925024"></rect>
                                    </g>
                                </g>
                            </g>
                        </g>
                    </g>
                </g>
            </g>
            <g id="Clipped">
                <mask id="mask-21" fill="white">
                    <use xlink:href="#path-20"></use>
                </mask>
                <g id="Path"></g>
                <g mask="url(#mask-21)">
                    <g transform="translate(0.986742, 10.224360)">
                        <mask id="mask-23" fill="white">
                            <use xlink:href="#path-22"></use>
                        </mask>
                        <g id="Rectangle" stroke="none" fill="none"></g>
                        <g id="Clipped" stroke="none" stroke-width="1" fill="none" fill-rule="evenodd" mask="url(#mask-23)">
                            <g transform="translate(0.309994, 0.309511)">
                                <mask id="mask-25" fill="white">
                                    <use xlink:href="#path-24" transform="translate(17.154190, 17.154392) rotate(-45.000620) translate(-17.154190, -17.154392) "></use>
                                </mask>
                                <g id="Rectangle" stroke="none" fill="none" transform="translate(17.154190, 17.154392) rotate(-45.000620) translate(-17.154190, -17.154392) "></g>
                                <g id="Clipped" stroke="none" stroke-width="1" fill="none" fill-rule="evenodd" mask="url(#mask-25)">
                                    <g transform="translate(-1.440315, -10.861642)">
                                        <mask id="mask-27" fill="white">
                                            <use xlink:href="#path-26"></use>
                                        </mask>
                                        <g id="Rectangle" stroke="none" fill="none"></g>
                                        <rect id="Rectangle" stroke="none" fill="#35D0BA" fill-rule="nonzero" mask="url(#mask-27)" x="-0.444462806" y="8.97734956" width="38.0773625" height="38.0773614"></rect>
                                    </g>
                                </g>
                            </g>
                        </g>
                    </g>
                </g>
            </g>
        </g>
        <g id="kubernetes-icon" fill-rule="nonzero">
            <path d="M23.0425398,0.00252876687 C22.6278311,0.0268921803 22.2222439,0.134325965 21.849854,0.318452805 L5.69859992,8.02236191 C4.85516969,8.42378832 4.24216112,9.18751295 4.03202816,10.097606 L0.0786301079,27.3879257 C-0.10976496,28.1994737 0.0424002871,29.0501499 0.513387958,29.7457625 C0.568457286,29.8298157 0.626424999,29.9109705 0.687291098,29.9892269 L11.8460759,43.8637991 C12.4358974,44.5883955 13.3213542,45.0043138 14.2546344,45 L32.1521659,45 C33.0883445,45.0014154 33.9752505,44.5652084 34.5636228,43.8507563 L45.7166108,29.9732858 C46.3020847,29.2486893 46.5209128,28.2922221 46.296288,27.3850274 L42.3168044,10.0802157 C42.1066715,9.17012263 41.4907645,8.40639801 40.6502327,8.00497159 L24.525064,0.319901997 C24.0604031,0.090724618 23.5457297,-0.0183881256 23.0280478,0.00252876687 L23.0425398,0.00252876687 Z" id="Path" fill="#326CE5"></path>
            <path d="M23.1903574,5.89494683 C22.6338674,5.93407504 22.2121523,6.41085948 22.2411361,6.96734953 L22.2411361,7.23979778 C22.2672216,7.54847585 22.3135958,7.85425554 22.3744619,8.15713684 C22.4633416,8.7371383 22.4953758,9.32443251 22.4701086,9.91066017 C22.4150393,10.1034028 22.3049006,10.277306 22.1541845,10.4106317 L22.1324467,10.8193041 C21.5455236,10.8685766 20.962948,10.9584266 20.3890677,11.0888539 C17.9747124,11.6337505 15.7762869,12.8858531 14.0792821,14.6900981 L13.7314758,14.4437354 C13.5401823,14.5017031 13.334397,14.4799652 13.1590446,14.3857676 C12.6886585,14.0376108 12.2532951,13.6444734 11.8591187,13.2119214 C11.6611182,12.9753367 11.4496697,12.75034 11.2258214,12.5380468 L11.0113408,12.367042 C10.8200474,12.2134276 10.5852782,12.1250268 10.3403646,12.1134333 C10.0439037,12.0977084 9.75783042,12.224852 9.57084317,12.4554428 C9.24332559,12.9148369 9.35056586,13.5510326 9.80851079,13.8799993 L10.0084994,14.0394106 C10.2659317,14.2106872 10.5330265,14.3669764 10.8084538,14.5074998 C11.3214681,14.7929908 11.8054985,15.1277544 12.2547483,15.5219348 C12.3696689,15.6858099 12.4364343,15.8785761 12.4474909,16.0784249 L12.763415,16.3682634 C11.057715,18.927538 10.3577549,22.0273615 10.7954111,25.0721156 L10.3896371,25.188051 C10.283846,25.3561574 10.1432743,25.4996275 9.97516797,25.6054186 C9.40903961,25.7565975 8.82951882,25.8522135 8.24483173,25.8909095 C7.93453467,25.8972122 7.62485936,25.9214056 7.31734831,25.9633692 L7.06084118,26.0213369 L7.03185732,26.0213369 C6.66884782,26.0717163 6.36513404,26.322199 6.24657833,26.6689821 C6.12802262,27.0157652 6.21482735,27.3997555 6.4710197,27.6618232 C6.72962679,27.9225742 7.11321963,28.0151075 7.4622676,27.90094 L7.4811071,27.90094 L7.74196181,27.8719562 C8.03614796,27.7850046 8.32598652,27.6777643 8.60857913,27.5560321 C9.15202644,27.3386532 9.71576245,27.171996 10.2925412,27.0633066 C10.4925298,27.0749001 10.6838233,27.1430122 10.8461329,27.2589476 L11.2808907,27.1864879 C12.2228661,30.1095099 14.2024635,32.5861804 16.8457912,34.1469611 L16.6689897,34.5165053 C16.7501445,34.6860609 16.7805775,34.8744559 16.7559412,35.0614018 C16.5168244,35.6149935 16.2240875,36.145398 15.882078,36.6439204 C15.6944588,36.8912224 15.5212351,37.1491225 15.3632669,37.4163402 L15.2400855,37.6771949 C15.0578556,37.9933056 15.0682305,38.384894 15.2669434,38.6909119 C15.4656563,38.9969297 15.8191567,39.1657094 16.1820609,39.1278369 C16.5458572,39.0869208 16.8557143,38.8448625 16.9834645,38.5017856 L17.1037475,38.2554228 C17.2138862,37.9655842 17.3066345,37.6699489 17.3819925,37.3714152 C17.6384997,36.7381179 17.7776222,36.0584465 18.1283269,35.6381805 C18.2429497,35.5304289 18.3873872,35.4597252 18.542796,35.4352936 L18.7601749,35.0396639 C21.6255697,36.1410259 24.7961775,36.1487641 27.6669141,35.0614018 L27.8596567,35.430946 C28.056747,35.4599298 28.2335485,35.5686193 28.3523823,35.7280305 C28.6248305,36.2468415 28.8451079,36.7902889 29.0132142,37.3511265 C29.0898521,37.6514313 29.183722,37.9470731 29.2943576,38.2365833 L29.4146406,38.4829461 C29.5436213,38.8246825 29.8534781,39.0651184 30.2165405,39.1051868 C30.5796029,39.1452552 30.9344341,38.9781757 31.1348325,38.6727903 C31.3332818,38.3655576 31.3422446,37.9728733 31.1580196,37.6569062 L31.0319398,37.3960515 C30.8739584,37.1297723 30.7007331,36.8728375 30.5131288,36.6265301 C30.1798145,36.145398 29.8928743,35.6323838 29.6436131,35.0947332 C29.5966125,34.8961352 29.6321712,34.6869663 29.7421582,34.5150561 C29.6803276,34.3886536 29.626599,34.2584464 29.5812978,34.1252232 C32.2188288,32.552849 34.189731,30.0674833 35.121562,27.1401138 L35.5331328,27.2125734 C35.6809505,27.0777985 35.8751423,27.006788 36.0736817,27.0125848 C36.6490113,27.1227235 37.2127473,27.3024234 37.7576438,27.5053104 C38.0402364,27.6357377 38.330075,27.7458764 38.6242611,27.8386247 C38.6938224,27.8574642 38.7952659,27.8734053 38.8735223,27.8922449 L38.8923618,27.8922449 C39.2411819,28.0048938 39.6237098,27.9114981 39.8813696,27.6507746 C40.1390293,27.3900511 40.2278971,27.006446 40.1111329,26.6589817 C39.9916798,26.3118127 39.6866231,26.061711 39.322772,26.0126417 L39.0416286,25.9459789 C38.7341176,25.9040153 38.4244423,25.8798219 38.1141452,25.8735192 C37.5286713,25.8358402 36.9489942,25.7401935 36.383809,25.5880282 C36.2099058,25.4909323 36.0649866,25.346013 35.9664414,25.1706607 L35.5751594,25.0547253 C35.9923616,22.0114074 35.2776055,18.9208352 33.5665781,16.3697126 L33.9085876,16.0537886 C33.8940957,15.8552492 33.9593094,15.6581589 34.0882875,15.5059937 C34.5331897,15.1234068 35.0157709,14.7857449 35.5229884,14.4973555 C35.798385,14.3567758 36.0654767,14.2004885 36.3229429,14.0292662 L36.534525,13.8582614 C36.8524665,13.6609235 37.0287102,13.2984404 36.987556,12.9265058 C36.9464019,12.5545711 36.695175,12.2393872 36.3417824,12.1163317 C35.9886894,11.9934288 35.5963965,12.0841747 35.3331442,12.3496517 L35.1186636,12.5206565 C34.8948605,12.7329948 34.6834146,12.9579888 34.4853664,13.1945311 C34.1027795,13.6321874 33.6796152,14.0307154 33.220221,14.3872168 C33.0348379,14.4626931 32.8320315,14.4847809 32.6347471,14.4509813 L32.2681013,14.711836 C30.1522798,12.494571 27.3017175,11.1178378 24.246819,10.8424912 C24.246819,10.6975719 24.2279795,10.480193 24.2250811,10.4120809 C24.0613223,10.2990439 23.9468361,10.1265899 23.9091571,9.93094887 C23.8890564,9.34569819 23.9259431,8.7598801 24.0192957,8.18177312 C24.081611,7.87744263 24.1250868,7.57311213 24.1526215,7.26443406 L24.1526215,6.97459549 C24.1816053,6.41810544 23.7613394,5.941321 23.2034002,5.90219279 L23.1903574,5.89494683 Z M21.9817306,13.381477 L21.691892,18.4435076 L21.6701541,18.4435076 C21.6556622,18.7565332 21.4716147,19.0231847 21.1890221,19.1739008 C20.9064295,19.3246168 20.571666,19.2796918 20.3195064,19.0956444 L16.1675689,16.1537829 C17.4890858,14.8557788 19.1469652,13.9528042 20.9542529,13.546685 C21.293364,13.4742253 21.6353735,13.419156 21.9788322,13.381477 L21.9817306,13.381477 Z M24.3989842,13.381477 C26.5800195,13.6524761 28.6103386,14.6321304 30.1812636,16.169724 L26.0684544,19.092746 C25.8148456,19.295633 25.4670394,19.3362104 25.1728532,19.1970878 C24.8786671,19.0579653 24.690272,18.76233 24.6859244,18.4377108 L24.3989842,13.381477 Z M14.6604084,18.0580223 L18.4572936,21.4462351 L18.4572936,21.467973 C18.6935121,21.6737584 18.7964047,21.99403 18.7268435,22.2998097 C18.6572822,22.6055894 18.422513,22.8476046 18.1225301,22.9302086 L18.1225301,22.9447005 L13.2503438,24.34607 C13.009252,22.1509893 13.5058737,19.9381165 14.6618576,18.0565731 L14.6604084,18.0580223 Z M31.6927718,18.0580223 C32.8463293,19.934727 33.3564451,22.1360509 33.144863,24.3286797 L28.2654307,22.9229626 L28.2654307,22.9041231 C27.9611002,22.8215191 27.7292294,22.5795039 27.6611173,22.2737242 C27.5930052,21.9679445 27.6944487,21.6505713 27.9306672,21.4418875 L31.6985685,18.0696158 L31.6927718,18.0580223 Z M22.4121409,21.7099882 L23.9656756,21.7099882 L24.9148969,22.9157167 L24.569989,24.4228772 L23.1744163,25.0938535 L21.7759452,24.4228772 L21.4469784,22.9157167 L22.4121409,21.7099882 Z M27.3886691,25.8227975 C27.4538827,25.8155515 27.5335883,25.8155515 27.5843101,25.8227975 L32.6086616,26.6705753 C31.8840652,28.757413 30.4537119,30.5399202 28.5871515,31.7326059 L26.6452331,27.0314243 C26.5368868,26.7754794 26.5597036,26.4828423 26.7064114,26.246784 C26.8531192,26.0107257 27.1054101,25.8607042 27.3828723,25.8445354 L27.3886691,25.8227975 Z M18.9500192,25.8445354 C19.234061,25.848883 19.4963649,25.9952514 19.6514285,26.2329191 C19.8064922,26.4705867 19.8311284,26.7691204 19.7195406,27.0299751 L19.7195406,27.0488146 L17.7892157,31.7123172 C15.9414949,30.5283266 14.5386762,28.7675573 13.7923419,26.7024575 L18.7732177,25.8575781 C18.828287,25.8517813 18.8848055,25.8517813 18.941324,25.8575781 L18.9500192,25.8445354 Z M23.1584752,27.8734053 C23.4813736,27.8632222 23.782441,28.0359015 23.9366917,28.3197567 L23.9555312,28.3197567 L26.4104639,32.7499392 L25.4293603,33.0397778 C23.6236661,33.4527978 21.7382662,33.3557018 19.9832937,32.7586344 L22.4469215,28.3284519 C22.5961884,28.0675972 22.871535,27.908186 23.1715179,27.90094 L23.1584752,27.8734053 Z" id="Shape" fill="#FFFFFF"></path>
        </g>
    </g>
</svg>
