<?xml version="1.0" encoding="UTF-8"?>
<svg width="188px" height="45px" viewBox="0 0 188 45" version="1.1" xmlns="http://www.w3.org/2000/svg" xmlns:xlink="http://www.w3.org/1999/xlink">
    <title>Graphic2-Light</title>
    <defs>
        <path d="M2.67478517,3.25158114e-15 C1.96538715,3.25158114e-15 1.28504341,0.281803118 0.783423256,0.783423268 C0.281803106,1.28504342 0,1.96538717 0,2.67478519 L0,27.8461382 C0,29.3233813 1.19754211,30.5209234 2.67478517,30.5209234 C4.15202823,30.5209234 5.34957047,29.3233813 5.34957047,27.8461382 L5.34957047,2.67535721 C5.34978963,1.96584028 5.0680714,1.28531199 4.56642078,0.783554094 C4.06477017,0.281796197 3.38430214,3.25158114e-15 2.67478517,3.25158114e-15" id="path-1"></path>
        <path d="M0.0114404841,10.1751665 C0.00400416942,10.3393375 3.25158114e-15,10.5048431 3.25158114e-15,10.6716835 C3.25158114e-15,10.8541593 0.00400416942,11.0349189 0.0137285809,11.2151065 C0.00972441145,11.3037703 3.25158114e-15,11.39129 3.25158114e-15,11.4816698 L3.25158114e-15,28.9959068 C3.25158114e-15,32.3451086 2.74056796,35.0856765 6.08976966,35.0856765 L15.2547414,35.0856765 C18.6045152,35.0856765 21.3445111,32.3451086 21.3445111,28.9959068 L21.3445111,11.4810978 C21.3445111,11.3792775 21.3342147,11.2803173 21.3284944,11.180213 C21.3365028,11.0114659 21.341079,10.8415747 21.341079,10.6716835 C21.341079,10.5046525 21.3370748,10.3399095 21.3296385,10.1751665 C21.0722276,4.51155489 16.3987899,-1.62579057e-15 10.6716835,-1.62579057e-15 C4.94400519,-1.62579057e-15 0.269995424,4.51155489 0.0114404841,10.1751665 Z" id="path-3"></path>
        <rect id="path-5" x="1.62579057e-15" y="-8.12895284e-16" width="34.6709584" height="34.6709573"></rect>
        <polygon id="path-7" points="-1.52757412 11.5962508 35.9041864 11.5962508 35.9041864 22.7803616 -1.52757412 22.7803616"></polygon>
        <rect id="path-9" x="3.25158114e-15" y="-1.62579057e-15" width="21.857618" height="35.4248852"></rect>
        <path d="M0.0114404841,10.1751665 C0.00400416942,10.3393375 3.25158114e-15,10.5048431 3.25158114e-15,10.6716835 C3.25158114e-15,10.8541593 0.00400416942,11.0349189 0.0137285809,11.2151065 C0.00972441145,11.3037703 3.25158114e-15,11.39129 3.25158114e-15,11.4816698 L3.25158114e-15,28.9959068 C3.25158114e-15,32.3451086 2.74056796,35.0856765 6.08976966,35.0856765 L15.2547414,35.0856765 C18.6045152,35.0856765 21.3445111,32.3451086 21.3445111,28.9959068 L21.3445111,11.4810978 C21.3445111,11.3792775 21.3342147,11.2803173 21.3284944,11.180213 C21.3365028,11.0114659 21.341079,10.8415747 21.341079,10.6716835 C21.341079,10.5046525 21.3370748,10.3399095 21.3296385,10.1751665 C21.0722276,4.51155489 16.3987899,-1.62579057e-15 10.6716835,-1.62579057e-15 C4.94400519,-1.62579057e-15 0.269995424,4.51155489 0.0114404841,10.1751665 Z" id="path-11"></path>
        <rect id="path-13" x="-2.03223821e-16" y="0" width="36.5552055" height="36.5552078"></rect>
        <polygon id="path-15" points="-0.60423438 11.2139581 36.8280971 11.2139581 36.8280971 25.0099046 -0.60423438 25.0099046"></polygon>
        <rect id="path-17" x="3.25158114e-15" y="-1.62579057e-15" width="21.857618" height="35.4248852"></rect>
        <path d="M0.0114404841,10.1751665 C0.00400416942,10.3393375 3.25158114e-15,10.5048431 3.25158114e-15,10.6716835 C3.25158114e-15,10.8541593 0.00400416942,11.0349189 0.0137285809,11.2151065 C0.00972441145,11.3037703 3.25158114e-15,11.39129 3.25158114e-15,11.4816698 L3.25158114e-15,28.9959068 C3.25158114e-15,32.3451086 2.74056796,35.0856765 6.08976966,35.0856765 L15.2547414,35.0856765 C18.6045152,35.0856765 21.3445111,32.3451086 21.3445111,28.9959068 L21.3445111,11.4810978 C21.3445111,11.3792775 21.3342147,11.2803173 21.3284944,11.180213 C21.3365028,11.0114659 21.341079,10.8415747 21.341079,10.6716835 C21.341079,10.5046525 21.3370748,10.3399095 21.3296385,10.1751665 C21.0722276,4.51155489 16.3987899,-1.62579057e-15 10.6716835,-1.62579057e-15 C4.94400519,-1.62579057e-15 0.269995424,4.51155489 0.0114404841,10.1751665 Z" id="path-19"></path>
        <rect id="path-21" x="3.25158114e-15" y="6.50316227e-15" width="34.6709601" height="34.6709601"></rect>
        <polygon id="path-23" points="-1.56221202 11.610963 35.8705925 11.610963 35.8705925 22.6978206 -1.56221202 22.6978206"></polygon>
        <rect id="path-25" x="3.25158114e-15" y="-1.62579057e-15" width="21.857618" height="35.4248852"></rect>
        <polygon id="path-27" points="-3.25158114e-15 0 4.66428535 4.74150862 4.66428535 0"></polygon>
    </defs>
    <g id="Graphic2-Light" stroke="none" stroke-width="1" fill="none" fill-rule="evenodd">
        <g id="crossplane-icon-color" transform="translate(157.000000, 0.000000)">
            <g id="Clipped" transform="translate(7.868193, 14.479077)">
                <mask id="mask-2" fill="white">
                    <use xlink:href="#path-1"></use>
                </mask>
                <g id="Path"></g>
                <rect id="Rectangle" fill="#F7D186" fill-rule="nonzero" mask="url(#mask-2)" x="-1.88424772" y="-1.88424771" width="9.11863782" height="34.2894205"></rect>
            </g>
            <g id="Clipped">
                <mask id="mask-4" fill="white">
                    <use xlink:href="#path-3"></use>
                </mask>
                <g id="Path"></g>
                <g mask="url(#mask-4)">
                    <g transform="translate(-6.927213, 2.310406)">
                        <mask id="mask-6" fill="white">
                            <use xlink:href="#path-5"></use>
                        </mask>
                        <g id="Rectangle" stroke="none" fill="none"></g>
                        <g id="Clipped" stroke="none" stroke-width="1" fill="none" fill-rule="evenodd" mask="url(#mask-6)">
                            <g transform="translate(0.333854, 0.338531)">
                                <mask id="mask-8" fill="white">
                                    <use xlink:href="#path-7" transform="translate(17.188306, 17.188306) rotate(-45.000000) translate(-17.188306, -17.188306) "></use>
                                </mask>
                                <g id="Rectangle" stroke="none" fill="none" transform="translate(17.188306, 17.188306) rotate(-45.000000) translate(-17.188306, -17.188306) "></g>
                                <g id="Clipped" stroke="none" stroke-width="1" fill="none" fill-rule="evenodd" mask="url(#mask-8)">
                                    <g transform="translate(6.449780, -2.976708)">
                                        <mask id="mask-10" fill="white">
                                            <use xlink:href="#path-9"></use>
                                        </mask>
                                        <g id="Rectangle" stroke="none" fill="none"></g>
                                        <rect id="Rectangle" stroke="none" fill="#FFCD3C" fill-rule="nonzero" mask="url(#mask-10)" x="-8.30922357" y="1.11201505" width="38.0773631" height="38.0773614"></rect>
                                    </g>
                                </g>
                            </g>
                        </g>
                    </g>
                </g>
            </g>
            <g id="Clipped">
                <mask id="mask-12" fill="white">
                    <use xlink:href="#path-11"></use>
                </mask>
                <g id="Path"></g>
                <g mask="url(#mask-12)">
                    <g transform="translate(-16.348452, -7.111405)">
                        <mask id="mask-14" fill="white">
                            <use xlink:href="#path-13"></use>
                        </mask>
                        <g id="Rectangle" stroke="none" fill="none"></g>
                        <g id="Clipped" stroke="none" stroke-width="1" fill="none" fill-rule="evenodd" mask="url(#mask-14)">
                            <g transform="translate(-0.000420, 0.000250)">
                                <mask id="mask-16" fill="white">
                                    <use xlink:href="#path-15" transform="translate(18.111931, 18.111931) rotate(-45.000000) translate(-18.111931, -18.111931) "></use>
                                </mask>
                                <g id="Rectangle" stroke="none" fill="none" transform="translate(18.111931, 18.111931) rotate(-45.000000) translate(-18.111931, -18.111931) "></g>
                                <g id="Clipped" stroke="none" stroke-width="1" fill="none" fill-rule="evenodd" mask="url(#mask-16)">
                                    <g transform="translate(16.205294, 6.783383)">
                                        <mask id="mask-18" fill="white">
                                            <use xlink:href="#path-17"></use>
                                        </mask>
                                        <g id="Rectangle" stroke="none" fill="none"></g>
                                        <rect id="Rectangle" stroke="none" fill="#F3807B" fill-rule="nonzero" mask="url(#mask-18)" x="-18.0896928" y="-8.6678816" width="39.9925001" height="39.9925024"></rect>
                                    </g>
                                </g>
                            </g>
                        </g>
                    </g>
                </g>
            </g>
            <g id="Clipped">
                <mask id="mask-20" fill="white">
                    <use xlink:href="#path-19"></use>
                </mask>
                <g id="Path"></g>
                <g mask="url(#mask-20)">
                    <g transform="translate(0.986742, 10.224360)">
                        <mask id="mask-22" fill="white">
                            <use xlink:href="#path-21"></use>
                        </mask>
                        <g id="Rectangle" stroke="none" fill="none"></g>
                        <g id="Clipped" stroke="none" stroke-width="1" fill="none" fill-rule="evenodd" mask="url(#mask-22)">
                            <g transform="translate(0.309994, 0.309511)">
                                <mask id="mask-24" fill="white">
                                    <use xlink:href="#path-23" transform="translate(17.154190, 17.154392) rotate(-45.000620) translate(-17.154190, -17.154392) "></use>
                                </mask>
                                <g id="Rectangle" stroke="none" fill="none" transform="translate(17.154190, 17.154392) rotate(-45.000620) translate(-17.154190, -17.154392) "></g>
                                <g id="Clipped" stroke="none" stroke-width="1" fill="none" fill-rule="evenodd" mask="url(#mask-24)">
                                    <g transform="translate(-1.440315, -10.861642)">
                                        <mask id="mask-26" fill="white">
                                            <use xlink:href="#path-25"></use>
                                        </mask>
                                        <g id="Rectangle" stroke="none" fill="none"></g>
                                        <rect id="Rectangle" stroke="none" fill="#35D0BA" fill-rule="nonzero" mask="url(#mask-26)" x="-0.444462806" y="8.97734956" width="38.0773625" height="38.0773614"></rect>
                                    </g>
                                </g>
                            </g>
                        </g>
                    </g>
                </g>
            </g>
            <g id="Clipped" transform="translate(8.554050, 35.085104)">
                <mask id="mask-28" fill="white">
                    <use xlink:href="#path-27"></use>
                </mask>
                <g id="Path"></g>
                <rect id="Rectangle" fill="#D8AE64" fill-rule="nonzero" mask="url(#mask-28)" x="-1.8459221" y="-1.89340183" width="8.41047014" height="8.44708026"></rect>
            </g>
        </g>
        <path d="M90,31 C90,30.1090951 91.0771419,29.6629284 91.7071068,30.2928932 L95.7071068,34.2928932 C96.0976311,34.6834175 96.0976311,35.3165825 95.7071068,35.7071068 L91.7071068,39.7071068 C91.0771419,40.3370716 90,39.8909049 90,39 L89.9990037,35.9999952 L84.5228802,36 C83.9705955,36 83.5228802,35.5522847 83.5228802,35 C83.5228802,34.4477153 83.9705955,34 84.5228802,34 L89.9990037,33.9999952 L90,31 Z M114.52155,33.9999769 C115.073834,33.9989692 115.522368,34.4458641 115.523382,34.9981479 C115.524318,35.5109829 115.139052,35.9343602 114.64182,35.993037 L114.5005,36 L104.52288,36 C103.970595,36 103.52288,35.5522848 103.52288,35 C103.52288,34.4477153 103.970595,34 104.52288,34 L114.52155,33.9999769 Z M65.9000901,31.1310445 C67.985947,32.9692579 70.6616582,34 73.5,34 L74.5228802,34 C75.075165,34 75.5228802,34.4477153 75.5228802,35 C75.5228802,35.5522847 75.075165,36 74.5228802,36 L73.5,36 C70.1700594,36 67.0254799,34.7886396 64.5777566,32.6315225 C64.163411,32.2663701 64.1235321,31.6344623 64.4886844,31.2201167 C64.8538367,30.8057712 65.4857446,30.7658922 65.9000901,31.1310445 Z M126.948328,20.979459 C127.500149,20.956818 127.965842,21.3858028 127.988483,21.9376232 C127.996007,22.121008 127.999851,22.3048769 127.999996,22.489942 C127.999996,26.024135 126.642338,29.3391906 124.25159,31.835791 C123.869613,32.2346799 123.236597,32.24839 122.837708,31.8664134 C122.438819,31.4844368 122.425109,30.8514203 122.807086,30.4525314 C124.844668,28.3247341 126,25.5037151 125.999996,22.4907306 C125.999872,22.3332678 125.996589,22.1762094 125.990164,22.0196135 C125.967523,21.467793 126.396508,21.0021 126.948328,20.979459 Z M65.1447552,13.1492379 C65.544355,13.5304708 65.5592444,14.1634607 65.1780115,14.5630604 C63.1495513,16.6892474 62.0000037,19.5037527 62.0000037,22.5089339 C62.0001282,22.673463 62.0037021,22.8375503 62.0107053,23.0011294 C62.0343285,23.5529087 61.6061733,24.0193646 61.054394,24.0429877 C60.5026148,24.0666109 60.0361589,23.6384557 60.0125358,23.0866764 C60.0043341,22.8951061 60.0001501,22.7030029 60.0000037,22.5096939 C60.0000037,18.9846345 61.350874,15.677219 63.7309327,13.1824942 C64.1121656,12.7828945 64.7451555,12.7680051 65.1447552,13.1492379 Z M98,6 L97.9990037,8.99999525 L103.5,9 C104.052285,9 104.5,9.44771525 104.5,10 C104.5,10.5522847 104.052285,11 103.5,11 L97.9990037,10.9999952 L98,14 C98,14.8909049 96.9228581,15.3370716 96.2928932,14.7071068 L92.2928932,10.7071068 C91.9023689,10.3165825 91.9023689,9.68341751 92.2928932,9.29289322 L96.2928932,5.29289322 C96.9228581,4.66292836 98,5.10909515 98,6 Z M114.5,9 C117.838747,9 120.99102,10.2178041 123.441211,12.3852248 C123.854875,12.751149 123.893576,13.3831301 123.527652,13.7967941 C123.161728,14.2104582 122.529747,14.249159 122.116083,13.8832349 C120.028109,12.0362288 117.345841,11 114.5,11 L113.5,11 C112.947715,11 112.5,10.5522847 112.5,10 C112.5,9.44771525 112.947715,9 113.5,9 L114.5,9 Z M83.5,9 C84.0522847,9 84.5,9.44771525 84.5,10 C84.5,10.5522847 84.0522847,11 83.5,11 L73.4574925,11.00009 C72.9052114,11.0020716 72.4558819,10.5559763 72.4538738,10.0036952 C72.4518923,9.45141403 72.8979876,9.0020846 73.4502687,9.0000898 L83.5,9 Z" id="Lines" fill="#7D4CD1" fill-rule="nonzero"></path>
        <path d="M18.232125,18.95075 L18.163375,25.76075 C18.163375,32.30575 11.860875,33.63325 9.668375,33.63325 C5.105875,33.63325 1.253375,30.8545 1.253375,25.76075 L1.253375,18.5645 C1.253375,16.972 2.172125,16.017 3.659625,16.017 C5.180875,16.017 6.099625,16.972 6.099625,18.5645 L6.099625,25.2145 C6.099625,27.797 7.404625,29.21075 9.668375,29.21075 C12.073375,29.21075 13.385875,28.00825 13.385875,25.2145 L13.385875,18.95075 C13.385875,17.3595 14.305875,16.4045 15.827125,16.4045 C17.313375,16.4045 18.232125,17.3595 18.232125,18.95075 Z M34.929,24.719125 C34.929,22.030375 33.19525,20.226625 30.72025,20.226625 C28.209,20.226625 26.404,22.101625 26.404,24.719125 C26.404,27.336625 28.209,29.211625 30.72025,29.211625 C33.19525,29.211625 34.929,27.371625 34.929,24.719125 Z M39.8815,24.719125 C39.8815,30.131625 36.6265,33.632875 31.71025,33.632875 C29.48275,33.632875 27.67775,32.855375 26.47525,31.510375 L26.404,31.510375 L26.404,37.417875 C26.404,39.009125 25.484,40.000375 23.964,40.000375 C22.47775,40.000375 21.559,39.009125 21.559,37.417875 L21.559,18.564125 C21.559,16.971625 22.47775,16.017875 23.964,16.017875 C25.2715,16.017875 26.1565,16.725375 26.369,17.962875 L26.439,17.962875 C27.64275,16.582875 29.4465,15.805375 31.71025,15.805375 C36.6265,15.805375 39.8815,19.306625 39.8815,24.719125 Z M7.341,8.670875 C7.341,10.698375 5.6985,12.342125 3.66975,12.342125 C1.6435,12.342125 -0.00025,10.698375 -0.00025,8.670875 C-0.00025,6.643375 1.6435,4.999625 3.66975,4.999625 C5.6985,4.999625 7.341,6.643375 7.341,8.670875 Z" id="Upbound" fill="#7D4CD1"></path>
    </g>
</svg>
